<svg xmlns="http://www.w3.org/2000/svg" viewBox="0 0 200 200"><g data-name="レイヤー 2"><path fill="none" d="M0 0h200v200H0z"/><circle cx="145" cy="78.03" r="21.99" fill="#f4684d"/><path d="M145 105.53a27.51 27.51 0 01-26.85-33.41A27.49 27.49 0 11145 105.53zm-16.11-31a16.5 16.5 0 107.23-10.35 16.5 16.5 0 00-7.23 10.35zm23.69-26.35a4.58 4.58 0 01-1-.11 4.49 4.49 0 01-3.43-5.36l2.43-11.06a4.5 4.5 0 018.79 1.94l-2.43 11a4.51 4.51 0 01-4.36 3.59zm-26.51 4.71a4.51 4.51 0 01-3.8-2.08l-6.1-9.54a4.5 4.5 0 017.59-4.85l6.09 9.58a4.51 4.51 0 01-3.78 6.93z"/><path d="M190.42 92.54a4.57 4.57 0 01-1-.1L178.39 90a4.5 4.5 0 011.94-8.79l11 2.44a4.5 4.5 0 01-1 8.89zm-15.76-28.95a4.5 4.5 0 01-2.43-8.29l9.54-6.09a4.5 4.5 0 114.84 7.58l-9.54 6.09a4.47 4.47 0 01-2.41.71z"/><path d="M152.49 93.07a24.66 24.66 0 00-12.72 3.52 42.45 42.45 0 00-81.24-13.53 30.63 30.63 0 00-4.82-.39 29.9 29.9 0 000 59.79h98.78a24.7 24.7 0 000-49.39z" fill="#fff"/><path d="M152.49 148.46H53.71A35.9 35.9 0 1155 76.69a48.45 48.45 0 0189.46 11.45 30.7 30.7 0 118.05 60.32zM53.71 88.67a23.9 23.9 0 000 47.79h98.78a18.7 18.7 0 10-9.62-34.73l-8.31 5-.77-9.66A36.45 36.45 0 0064 85.46l-1.86 4.27-4.57-.73a24 24 0 00-3.86-.33z"/></g></svg>