<svg xmlns="http://www.w3.org/2000/svg" viewBox="0 0 200 200"><g data-name="レイヤー 2"><path fill="none" d="M0 0h200v200H0z"/><path d="M149 41.65v-1.09a29.67 29.67 0 1035.46 44A43.66 43.66 0 01149 41.65z" fill="#ffb717"/><path d="M159.61 102.43a34.18 34.18 0 01-12.27-66.07l6.27-2.36-.15 6.72v1a39.16 39.16 0 0031.81 38.46l6.62 1.26-3.71 5.56a34.1 34.1 0 01-28.57 15.43zm-14.76-54.55a25.16 25.16 0 0014.76 45.55A25.1 25.1 0 00176.4 87a48.21 48.21 0 01-31.55-39.12z"/><path d="M152.49 93.07a24.66 24.66 0 00-12.72 3.52 42.45 42.45 0 00-81.24-13.53 30.63 30.63 0 00-4.82-.39 29.9 29.9 0 000 59.79h98.78a24.7 24.7 0 000-49.39z" fill="#fff"/><path d="M152.49 148.46H53.71a35.9 35.9 0 010-71.79h1.27a48.45 48.45 0 0189.46 11.45 30.7 30.7 0 118.05 60.32zM53.71 88.67a23.9 23.9 0 000 47.79h98.78a18.7 18.7 0 10-9.62-34.73l-8.31 5-.77-9.66A36.45 36.45 0 0064 85.46l-1.86 4.27-4.57-.73a24 24 0 00-3.86-.33z"/></g></svg>