<svg xmlns="http://www.w3.org/2000/svg" viewBox="0 0 200 200"><g data-name="レイヤー 2"><path fill="none" d="M0 0h200v200H0z"/><path d="M159.5 92a28.42 28.42 0 00-14.67 4.06 49 49 0 00-93.77-15.61A35.06 35.06 0 0045.5 80a34.5 34.5 0 000 69h114a28.5 28.5 0 000-57z" fill="#fff"/><path d="M159.5 155h-114a40.5 40.5 0 010-81h2a55 55 0 01102 13.42 34.5 34.5 0 1110 67.53zm-114-69a28.5 28.5 0 000 57h114a22.5 22.5 0 10-11.58-41.79l-8.3 5-.77-9.66a43 43 0 00-82.28-13.7l-1.87 4.27-4.6-.74a28.64 28.64 0 00-4.6-.38z"/></g></svg>