<svg xmlns="http://www.w3.org/2000/svg" viewBox="0 0 200 200"><g data-name="レイヤー 2"><path fill="none" d="M0 0h200v200H0z"/><path d="M152.49 93.07a24.66 24.66 0 00-12.72 3.52 42.45 42.45 0 00-81.24-13.53 30.63 30.63 0 00-4.82-.39 29.9 29.9 0 000 59.79h98.78a24.7 24.7 0 000-49.39z" fill="#fff"/><path d="M152.49 148.46H53.71A35.9 35.9 0 1155 76.69a48.45 48.45 0 0189.46 11.45 30.7 30.7 0 118.05 60.32zM53.71 88.67a23.9 23.9 0 000 47.79h98.78a18.7 18.7 0 10-9.62-34.73l-8.31 5-.77-9.66A36.44 36.44 0 0064 85.46l-1.87 4.27-4.56-.73a24 24 0 00-3.86-.33z"/><path d="M97.47 47.54a52.78 52.78 0 0149.76 35.93 34.12 34.12 0 015.26-.4 34.74 34.74 0 0133.26 24.86 24.7 24.7 0 00-34.38-33 42.44 42.44 0 00-75.93-22.51 52.32 52.32 0 0122.03-4.88zM52.68 72.68a52.83 52.83 0 019.58-11.53 29.88 29.88 0 00-22.37 14 40 40 0 0112.79-2.47z" fill="#7078e0"/></g></svg>