<svg xmlns="http://www.w3.org/2000/svg" viewBox="0 0 200 200"><g data-name="レイヤー 2"><path fill="none" d="M0 0h200v200H0z"/><path d="M160 92a28.42 28.42 0 00-14.67 4.06 49 49 0 00-93.77-15.61A35.06 35.06 0 0046 80a34.5 34.5 0 000 69h114a28.5 28.5 0 000-57z" fill="#fff"/><path d="M159.5 155h-12.78a6 6 0 010-12h12.78a22.5 22.5 0 10-11.58-41.79l-8.3 5-.77-9.66a43 43 0 00-82.28-13.7l-1.87 4.27-4.6-.74A28.5 28.5 0 1045.5 143a6 6 0 010 12 40.5 40.5 0 010-81h2a55 55 0 01102 13.42 34.5 34.5 0 1110 67.53z"/><path d="M65.29 182.9a3.68 3.68 0 01-.66-.06 4 4 0 01-3.29-4.59l8-48.39a4 4 0 017.89 1.31l-8 48.38a4 4 0 01-3.94 3.35zm18.43 0a3.68 3.68 0 01-.66-.06 4 4 0 01-3.29-4.59l8-48.39a4 4 0 117.89 1.31l-8 48.38a4 4 0 01-3.94 3.35zm18.43 0a3.68 3.68 0 01-.66-.06 4 4 0 01-3.29-4.59l8-48.39a4 4 0 117.89 1.31l-8 48.38a4 4 0 01-3.94 3.35zm18.43 0a3.68 3.68 0 01-.66-.06 4 4 0 01-3.29-4.59l8-48.39a4 4 0 017.89 1.31l-8 48.38a4 4 0 01-3.94 3.35z" fill="#3891e8"/></g></svg>