<svg xmlns="http://www.w3.org/2000/svg" viewBox="0 0 200 200"><g data-name="レイヤー 2"><path fill="none" d="M0 0h200v200H0z"/><path d="M160 92a28.42 28.42 0 00-14.67 4.06 49 49 0 00-93.77-15.61A35.06 35.06 0 0046 80a34.5 34.5 0 000 69h114a28.5 28.5 0 000-57z" fill="#fff"/><path d="M159.5 155h-12.78a6 6 0 010-12h12.78a22.5 22.5 0 10-11.58-41.79l-8.3 5-.77-9.66a43 43 0 00-82.28-13.7l-1.87 4.27-4.6-.74A28.5 28.5 0 1045.5 143a6 6 0 010 12 40.5 40.5 0 010-81h2a55 55 0 01102 13.42 34.5 34.5 0 1110 67.53z"/><path d="M69.37 163.19a5.67 5.67 0 01-.82-.07 5 5 0 01-4.12-5.75l.65-3.94a5 5 0 019.92 1.63l-.7 3.94a5 5 0 01-4.93 4.19zm3.26-19.73a5.76 5.76 0 01-.82-.06 5 5 0 01-4.12-5.75l1.31-7.9a5 5 0 019.86 1.63l-1.3 7.9a5 5 0 01-4.93 4.18zm13.12 28.46a5.07 5.07 0 01-.94-.09 5 5 0 01-4-5.84l1.5-7.86a5 5 0 119.84 1.87l-1.49 7.86a5 5 0 01-4.91 4.06zm4.48-23.58a5.07 5.07 0 01-.94-.09 5 5 0 01-4-5.84l1.49-7.86a5 5 0 119.82 1.87l-1.49 7.86a5 5 0 01-4.88 4.06zM106 164.72a4.54 4.54 0 01-.82-.07 5 5 0 01-4.18-5.75l.9-5.47a5 5 0 019.87 1.63l-.91 5.47a5 5 0 01-4.86 4.19zm3.51-21.26a5.76 5.76 0 01-.82-.06 5 5 0 01-4.12-5.75l1.31-7.9a5 5 0 119.86 1.64l-1.3 7.89a5 5 0 01-4.95 4.18zM122 179a4.62 4.62 0 01-.82-.07 5 5 0 01-4.12-5.75l1.31-7.89a5 5 0 119.86 1.63l-1.3 7.89A5 5 0 01122 179zm4-23.65a4.54 4.54 0 01-.82-.07 5 5 0 01-4.12-5.75l1.31-7.89a5 5 0 119.86 1.63l-1.31 7.89a5 5 0 01-4.92 4.19z" fill="#3891e8"/></g></svg>