<svg xmlns="http://www.w3.org/2000/svg" viewBox="0 0 200 200"><defs><style>.cls-1{fill:#fff}</style></defs><g id="レイヤー_2" data-name="レイヤー 2"><g id="outlined"><path class="cls-1" d="M160 91.5a28.44 28.44 0 00-14.67 4.06A49 49 0 0051.57 80a35.28 35.28 0 00-5.57-.5 34.5 34.5 0 000 69h114a28.5 28.5 0 000-57z"/><path fill="none" d="M0 0h200v200H0z"/><path class="cls-1" d="M159.5 92a28.42 28.42 0 00-14.67 4.06 49 49 0 00-93.77-15.61A35.06 35.06 0 0045.5 80a34.5 34.5 0 000 69h114a28.5 28.5 0 000-57z"/><path d="M131.07 128.07h-22.76l15.75-27.59H91.29l-18.46 36.93h16.16l-21.06 50.12 63.14-59.46z"/><path d="M159.5 86a34.46 34.46 0 00-10 1.47 55 55 0 00-102-13.42h-2a40.5 40.5 0 000 81h29.59L80 143.41H63.12l.21-.41H45.5a28.5 28.5 0 114.6-56.62l4.6.74 1.87-4.27a43 43 0 0182.28 13.69l.77 9.66 8.3-5A22.5 22.5 0 11159.5 143H124l-12.74 12h48.24a34.5 34.5 0 000-69z"/><path fill="#ffb717" d="M131.07 128.07h-22.76l15.75-27.59H91.29l-18.46 36.93h16.16l-21.06 50.12 63.14-59.46z"/></g></g></svg>