<svg xmlns="http://www.w3.org/2000/svg" viewBox="0 0 200 200"><defs><style>.cls-2{fill:none;stroke:#000;stroke-linecap:round;stroke-miterlimit:10;stroke-width:8px}</style></defs><g id="レイヤー_2" data-name="レイヤー 2"><g id="outlined"><path fill="none" d="M0 0h200v200H0z"/><path class="cls-2" d="M139.07 109l32.18-32.17"/><path d="M137.44 91.76a44.68 44.68 0 10-74.88 0 54.92 54.92 0 00-17.63 40.38c0 30.41 24.65 49.07 55.07 49.07s55.07-18.66 55.07-49.07a54.92 54.92 0 00-17.63-40.38z" fill="#fff"/><path d="M100 187.21c-16.57 0-31.78-5.17-42.83-14.56-11.76-10-18.24-24.38-18.24-40.51A61.31 61.31 0 0155.06 90.8a50.68 50.68 0 1189.88 0 61.31 61.31 0 0116.13 41.34c0 16.13-6.48 30.51-18.24 40.51-11.05 9.35-26.26 14.56-42.83 14.56zm0-158.49a38.66 38.66 0 00-32.41 59.76l2.76 4.24-3.71 3.44a49.25 49.25 0 00-15.71 36c0 25.36 20.18 43.07 49.07 43.07s49.07-17.71 49.07-43.07a49.25 49.25 0 00-15.71-36l-3.71-3.44 2.76-4.24A38.66 38.66 0 00100 28.72z"/><path class="cls-2" d="M181.25 91.52l-23.84-.85"/><circle cx="86.77" cy="67.39" r="5.71"/><circle cx="111.41" cy="67.39" r="5.71"/></g></g></svg>