<svg xmlns="http://www.w3.org/2000/svg" viewBox="0 0 200 200"><g data-name="レイヤー 2"><path fill="none" d="M0 0h200v200H0z"/><path d="M60.71 81.37a139.25 139.25 0 01-38.54-5.17 6 6 0 013.3-11.54c29.28 8.37 57.37 3.7 79.94 0l2.62-.44c25.26-4.22 49.11-8.2 71.38.72A6 6 0 01175 76c-19.2-7.64-40.42-4.1-65 0l-2.64.44c-13.8 2.3-29.59 4.93-46.65 4.93z"/><path d="M60.71 110.92a139.23 139.23 0 01-38.54-5.16 6 6 0 013.3-11.54c29.28 8.37 57.37 3.7 79.94-.06l2.62-.43c25.26-4.22 49.11-8.2 71.38.71a6 6 0 01-4.41 11.14c-19.15-7.66-40.37-4.12-64.94 0l-2.64.44c-13.86 2.28-29.65 4.9-46.71 4.9z" fill="#666"/><path d="M60.71 140.48a138.88 138.88 0 01-38.54-5.17 6 6 0 113.3-11.53c29.28 8.37 57.37 3.7 79.94-.06l2.62-.44c25.26-4.21 49.11-8.19 71.38.72a6 6 0 11-4.41 11.14c-19.15-7.66-40.37-4.12-64.94 0l-2.64.44c-13.86 2.28-29.65 4.9-46.71 4.9z" fill="#999"/></g></svg>